# xmcd
#
# Track frame offsets: 
#        150
#        15387
#        33714
#        50844
#        68950
#        80814
#        97929
#        111651
#        129391
#        142132
#        156747
#        176858
#        191224
#        203265
#        215412
#        235148
#        250511
#        267720
#        284671
#        302006
#        314225
#
# Disc length: 4400 seconds
#
# Revision: 0
# Processed by: cddbd v1.5.1PL0 Copyright (c) Steve Scherf et al.
# Submitted via: ExactAudioCopy v0.95a4
#
DISCID=52112e15
DTITLE=Various Artist - The Ultimate Country Collection Disc 2
DYEAR=2004
DGENRE=Country
TTITLE0=Don Williams - I Recall A Gypsy Woman
TTITLE1=Kris Kristofferson - Me and Bobby McGee
TTITLE2=Ryan Adams - New York, New York
TTITLE3=Steve Earle - Copperhead Road
TTITLE4=Johnny Paycheck - Take This Job and Shove It
TTITLE5=Johnny Cash - A Boy Named Sue (Live)
TTITLE6=The Highwayman
TTITLE7=Billy Swan - I Can Help
TTITLE8=Charley Pride - Crystal Chandelier
TTITLE9=Jeannie C Riley - Harper Valley PTA
TTITLE10=Lonestar - Amazed
TTITLE11=Bellamy Brothers - If I Said You Had A Beautiful Body
TTITLE12=Marie Osmond - Paper Roses
TTITLE13=Charlie Rich - The Most Beautiful Girl
TTITLE14=The Mavericks - Dance the Night Away
TTITLE15=Billy Ray Cyrus - Achy Breaky Heart
TTITLE16=Ray Price - For The Good Times
TTITLE17=CW McCall - Convoy
TTITLE18=Dr Hook and the Medicine Show - Sylvia's Mother
TTITLE19=Hank Williams with the Driftin Cowboys - Your Cheatin' Heart
TTITLE20=Willie Nelson - Always on my Mind
EXTD=
EXTT0=
EXTT1=
EXTT2=
EXTT3=
EXTT4=
EXTT5=
EXTT6=
EXTT7=
EXTT8=
EXTT9=
EXTT10=
EXTT11=
EXTT12=
EXTT13=
EXTT14=
EXTT15=
EXTT16=
EXTT17=
EXTT18=
EXTT19=
EXTT20=
PLAYORDER=
